<svg width="454" height="414" viewBox="0 0 454 414" fill="none" xmlns="http://www.w3.org/2000/svg">
<path d="M58.9825 172.656L27.6577 172.001L1.89563 121.452L32.2006 122.085L58.9825 172.656Z" fill="#CCC4D7"/>
<path d="M94.9825 172.656L63.6577 172.001L37.8956 121.452L68.2006 122.085L94.9825 172.656Z" fill="#B08FE5"/>
<path d="M129.984 172.322L98.6587 171.666L72.8984 121.116L103.203 121.75L129.984 172.322Z" fill="#680DC2"/>
<rect x="302.011" y="223.368" width="6.44483" height="3.44668" fill="#D1D0D0"/>
<path d="M95.1479 5.4635L268.506 5.44399L417.134 312.061L249.421 312.08L95.1479 5.4635Z" fill="url(#paint0_linear_217_136)" fill-opacity="0.7"/>
<path d="M272.985 288.021C272.957 286.364 274.277 284.999 275.934 284.97L314.456 284.314C316.113 284.286 317.479 285.606 317.507 287.263L317.539 289.129C317.567 290.785 316.247 292.151 314.59 292.179L276.068 292.836C274.411 292.864 273.045 291.544 273.017 289.887L272.985 288.021Z" fill="black"/>
<path d="M201.823 262.049C201.823 261.564 202.217 261.17 202.702 261.17V261.17C203.188 261.17 203.581 261.564 203.581 262.049V277.148C203.581 277.633 203.188 278.026 202.702 278.026V278.026C202.217 278.026 201.823 277.633 201.823 277.148V262.049Z" fill="#787474"/>
<rect x="201.823" y="242.628" width="1.75768" height="13.485" rx="0.878841" fill="#787474"/>
<rect x="201.823" y="287.016" width="1.75768" height="13.485" rx="0.878841" fill="#787474"/>
<rect x="206.667" y="218.72" width="110.421" height="191.656" rx="17.5" fill="#730DC2"/>
<rect x="206.667" y="218.72" width="110.421" height="191.656" rx="17.5" fill="url(#paint1_linear_217_136)"/>
<rect x="206.667" y="218.72" width="110.421" height="191.656" rx="17.5" stroke="#767676" stroke-width="5"/>
<rect x="206.495" y="218.596" width="107.249" height="191.903" rx="16.5" stroke="black" stroke-width="7"/>
<g filter="url(#filter0_d_217_136)">
<path d="M251.625 297.875H256.858L260.828 315.109H255.865L251.625 297.875Z" fill="#CCC4D7"/>
<path d="M257.67 297.875H262.904L266.874 315.109H261.911L257.67 297.875Z" fill="#B08FE5"/>
<path d="M263.806 297.875H269.039L273.01 315.109H268.047L263.806 297.875Z" fill="#680DC2"/>
</g>
<path d="M219.568 225.135V224.702H219.756C220.096 224.702 220.33 224.647 220.459 224.537C220.588 224.424 220.652 224.27 220.652 224.075V223.946H221.145V228.522H220.559V225.135H219.568ZM223.254 226.231C223.254 226.598 223.279 226.916 223.33 227.186C223.385 227.455 223.477 227.676 223.605 227.848C223.734 228.016 223.898 228.1 224.098 228.1C224.25 228.1 224.381 228.049 224.49 227.948C224.604 227.846 224.689 227.705 224.748 227.526C224.811 227.342 224.855 227.145 224.883 226.934C224.91 226.723 224.924 226.489 224.924 226.231C224.924 225.664 224.855 225.209 224.719 224.866C224.582 224.522 224.371 224.35 224.086 224.35C223.801 224.35 223.59 224.52 223.453 224.86C223.32 225.2 223.254 225.657 223.254 226.231ZM222.668 226.231C222.668 225.805 222.709 225.434 222.791 225.118C222.873 224.801 222.982 224.557 223.119 224.385C223.26 224.213 223.41 224.088 223.57 224.01C223.73 223.928 223.902 223.887 224.086 223.887C224.535 223.887 224.885 224.09 225.135 224.496C225.385 224.903 225.51 225.481 225.51 226.231C225.51 226.934 225.391 227.5 225.152 227.93C224.918 228.356 224.566 228.569 224.098 228.569C223.914 228.569 223.74 228.528 223.576 228.446C223.416 228.364 223.266 228.235 223.125 228.059C222.984 227.883 222.873 227.639 222.791 227.327C222.709 227.014 222.668 226.649 222.668 226.231ZM226.436 228V227.233H227.256V228H226.436ZM226.436 225.627V224.86H227.256V225.627H226.436ZM228.469 225.135V224.702H228.656C228.996 224.702 229.23 224.647 229.359 224.537C229.488 224.424 229.553 224.27 229.553 224.075V223.946H230.045V228.522H229.459V225.135H228.469ZM231.428 227.022L233.455 223.94H233.959V227.01H234.574V227.479H233.959V228.516H233.391V227.479H231.428V227.022ZM231.979 227.01H233.391V225.463C233.391 225.229 233.398 225.004 233.414 224.789H233.391C233.391 224.789 233.268 224.989 233.021 225.387L231.979 227.01Z" fill="white"/>
<rect x="288.937" y="226.535" width="0.761662" height="2.36344" fill="white"/>
<rect x="287.765" y="227.323" width="0.761662" height="1.57563" fill="white"/>
<rect x="290.108" y="224.96" width="0.761662" height="3.93907" fill="white"/>
<rect x="291.28" y="224.172" width="0.761662" height="4.72688" fill="white"/>
<rect x="292.452" y="223.384" width="0.761662" height="5.51469" fill="white"/>
<rect x="297.364" y="223.142" width="4.10126" height="2.06801" fill="#CCCBCB"/>
<path d="M297.235 228.909V224.084H301.337V228.909H297.235Z" fill="#F9F9F9"/>
<path d="M148.16 169H177.14V160H158.9V150.52H173.84V141.52H158.9V133.24H176.48V124.3H148.16V169ZM193.753 169.84C197.533 169.84 200.713 168.1 203.533 165.58H203.833L204.553 169H213.253V149.62C213.253 138.94 208.273 134.02 199.453 134.02C194.113 134.02 189.253 135.82 184.753 138.52L188.473 145.54C191.893 143.62 194.713 142.54 197.413 142.54C200.893 142.54 202.333 144.16 202.573 146.92C189.253 148.36 183.613 152.26 183.613 159.46C183.613 165.16 187.453 169.84 193.753 169.84ZM197.413 161.56C195.193 161.56 193.753 160.6 193.753 158.62C193.753 156.22 195.913 154.24 202.573 153.4V158.86C201.013 160.54 199.573 161.56 197.413 161.56ZM231.7 169.84C241 169.84 245.92 164.98 245.92 158.68C245.92 152.5 241.18 150.04 236.92 148.42C233.38 147.16 230.44 146.38 230.44 144.34C230.44 142.72 231.58 141.88 234.04 141.88C236.26 141.88 238.66 143.02 241.12 144.76L245.86 138.4C242.98 136.18 239.02 134.02 233.68 134.02C225.7 134.02 220.48 138.4 220.48 144.82C220.48 150.52 225.1 153.28 229.18 154.9C232.66 156.28 235.96 157.24 235.96 159.28C235.96 160.96 234.76 161.98 231.94 161.98C229.24 161.98 226.42 160.72 223.3 158.38L218.56 165.04C222.04 167.92 227.26 169.84 231.7 169.84ZM256.346 182.14C264.446 182.14 268.166 177.82 271.466 169.06L283.226 134.86H273.026L269.066 149.02C268.286 152.26 267.506 155.44 266.846 158.68H266.546C265.646 155.32 264.926 152.14 263.906 149.02L259.346 134.86H248.606L261.686 167.98L261.206 169.72C260.426 172.12 258.746 173.8 255.506 173.8C254.726 173.8 253.826 173.5 253.226 173.38L251.306 181.48C252.746 181.9 254.126 182.14 256.346 182.14ZM302.848 169H319.708C329.428 169 337.168 164.92 337.168 155.8C337.168 149.86 333.748 146.5 329.248 145.3V145.06C332.848 143.68 335.068 139.36 335.068 135.4C335.068 126.82 327.688 124.3 318.448 124.3H302.848V169ZM313.588 142.06V132.52H318.028C322.528 132.52 324.628 133.84 324.628 137.02C324.628 140.08 322.588 142.06 318.028 142.06H313.588ZM313.588 160.78V149.92H318.928C324.148 149.92 326.728 151.42 326.728 155.08C326.728 158.92 324.088 160.78 318.928 160.78H313.588ZM352.366 169.84C356.146 169.84 359.326 168.1 362.146 165.58H362.446L363.166 169H371.866V149.62C371.866 138.94 366.886 134.02 358.066 134.02C352.726 134.02 347.866 135.82 343.366 138.52L347.086 145.54C350.506 143.62 353.326 142.54 356.026 142.54C359.506 142.54 360.946 144.16 361.186 146.92C347.866 148.36 342.226 152.26 342.226 159.46C342.226 165.16 346.066 169.84 352.366 169.84ZM356.026 161.56C353.806 161.56 352.366 160.6 352.366 158.62C352.366 156.22 354.526 154.24 361.186 153.4V158.86C359.626 160.54 358.186 161.56 356.026 161.56ZM380.113 169H390.793V146.2C392.833 144.22 394.273 143.14 396.673 143.14C399.373 143.14 400.633 144.46 400.633 149.2V169H411.313V147.88C411.313 139.36 408.133 134.02 400.693 134.02C396.073 134.02 392.593 136.36 389.773 139.12H389.593L388.813 134.86H380.113V169ZM419.605 169H430.105V160.54L434.065 156.04L441.445 169H453.025L440.305 149.08L452.185 134.86H440.485L430.405 147.7H430.105V121.06H419.605V169Z" fill="#290B68"/>
<defs>
<filter id="filter0_d_217_136" x="247.625" y="297.875" width="29.3851" height="25.2334" filterUnits="userSpaceOnUse" color-interpolation-filters="sRGB">
<feFlood flood-opacity="0" result="BackgroundImageFix"/>
<feColorMatrix in="SourceAlpha" type="matrix" values="0 0 0 0 0 0 0 0 0 0 0 0 0 0 0 0 0 0 127 0" result="hardAlpha"/>
<feOffset dy="4"/>
<feGaussianBlur stdDeviation="2"/>
<feComposite in2="hardAlpha" operator="out"/>
<feColorMatrix type="matrix" values="0 0 0 0 0 0 0 0 0 0 0 0 0 0 0 0 0 0 0.25 0"/>
<feBlend mode="normal" in2="BackgroundImageFix" result="effect1_dropShadow_217_136"/>
<feBlend mode="normal" in="SourceGraphic" in2="effect1_dropShadow_217_136" result="shape"/>
</filter>
<linearGradient id="paint0_linear_217_136" x1="181.572" y1="33.6641" x2="450.275" y2="394.05" gradientUnits="userSpaceOnUse">
<stop offset="0.0517784" stop-color="#8F00FF"/>
<stop offset="0.319837" stop-color="#BC01FE" stop-opacity="0.990423"/>
<stop offset="0.703911" stop-color="#AD1EDF" stop-opacity="0.62053"/>
<stop offset="0.918086" stop-color="#EAAFFF" stop-opacity="0.0260417"/>
<stop offset="1" stop-color="#FAECFF" stop-opacity="0"/>
</linearGradient>
<linearGradient id="paint1_linear_217_136" x1="312.265" y1="219.029" x2="220.258" y2="410.623" gradientUnits="userSpaceOnUse">
<stop stop-color="#DBB4FB"/>
<stop offset="0.687204" stop-color="#B43FCA" stop-opacity="0.01"/>
<stop offset="0.776437" stop-color="#D88FE6" stop-opacity="0"/>
<stop offset="0.789568" stop-color="#E79DF4" stop-opacity="0.01"/>
<stop offset="0.802083" stop-color="#AF2AD0" stop-opacity="0.0348387"/>
<stop offset="0.958333" stop-color="#8000FF" stop-opacity="0"/>
</linearGradient>
</defs>
</svg>
