<svg width="1051" height="559" viewBox="0 0 1051 559" fill="none" xmlns="http://www.w3.org/2000/svg">
<path d="M0 0H216.621L401 559H191.432L0 0Z" fill="url(#paint0_linear_219_145)"/>
<rect x="276.793" y="156.703" width="9.05268" height="4.58197" fill="#D1D0D0"/>
<path d="M136.065 222.085C136.065 221.404 136.617 220.851 137.299 220.851V220.851C137.981 220.851 138.533 221.404 138.533 222.085V247.108C138.533 247.79 137.981 248.343 137.299 248.343V248.343C136.617 248.343 136.065 247.79 136.065 247.108V222.085Z" fill="#787474"/>
<rect x="136.065" y="190.61" width="2.46891" height="21.9934" rx="1.23446" fill="#787474"/>
<rect x="136.065" y="263.005" width="2.46891" height="21.9934" rx="1.23446" fill="#787474"/>
<rect x="141.856" y="150.039" width="157.125" height="315.738" rx="17.5" fill="#730DC2"/>
<rect x="141.856" y="150.039" width="157.125" height="315.738" rx="17.5" fill="url(#paint1_linear_219_145)"/>
<rect x="141.856" y="150.039" width="157.125" height="315.738" rx="17.5" stroke="#767676" stroke-width="5"/>
<rect x="141.21" y="149.207" width="153.479" height="317.403" rx="16.5" stroke="black" stroke-width="7"/>
<rect x="187.089" y="148.456" width="62.5458" height="12.8295" rx="3" fill="black"/>
<g filter="url(#filter0_d_219_145)">
<path d="M206.017 281.333H214.334L220.643 307.908H212.756L206.017 281.333Z" fill="#CCC4D7"/>
<path d="M215.624 281.333H223.941L230.25 307.908H222.363L215.624 281.333Z" fill="#B08FE5"/>
<path d="M225.375 281.333H233.691L240 307.908H232.114L225.375 281.333Z" fill="#680DC2"/>
</g>
<path d="M155.853 156.962V156.312H156.134C156.644 156.312 156.995 156.229 157.188 156.065C157.382 155.896 157.479 155.664 157.479 155.371V155.178H158.217V162.042H157.338V156.962H155.853ZM161.381 158.605C161.381 159.156 161.419 159.634 161.495 160.038C161.577 160.442 161.715 160.773 161.908 161.031C162.102 161.283 162.348 161.409 162.646 161.409C162.875 161.409 163.071 161.333 163.235 161.181C163.405 161.028 163.534 160.817 163.622 160.548C163.716 160.272 163.783 159.977 163.824 159.66C163.865 159.344 163.886 158.992 163.886 158.605C163.886 157.756 163.783 157.073 163.578 156.558C163.373 156.042 163.057 155.784 162.629 155.784C162.201 155.784 161.885 156.039 161.68 156.549C161.48 157.059 161.381 157.744 161.381 158.605ZM160.502 158.605C160.502 157.967 160.563 157.41 160.687 156.936C160.81 156.461 160.974 156.095 161.179 155.837C161.39 155.579 161.615 155.392 161.855 155.274C162.096 155.151 162.354 155.09 162.629 155.09C163.303 155.09 163.827 155.395 164.202 156.004C164.577 156.613 164.765 157.48 164.765 158.605C164.765 159.66 164.586 160.51 164.229 161.154C163.877 161.793 163.35 162.112 162.646 162.112C162.371 162.112 162.11 162.051 161.864 161.928C161.624 161.805 161.398 161.611 161.188 161.348C160.977 161.084 160.81 160.718 160.687 160.249C160.563 159.78 160.502 159.232 160.502 158.605ZM166.153 161.26V160.108H167.384V161.26H166.153ZM166.153 157.7V156.549H167.384V157.7H166.153ZM169.203 156.962V156.312H169.484C169.994 156.312 170.346 156.229 170.539 156.065C170.732 155.896 170.829 155.664 170.829 155.371V155.178H171.567V162.042H170.688V156.962H169.203ZM173.642 159.792L176.683 155.169H177.438V159.774H178.361V160.478H177.438V162.033H176.586V160.478H173.642V159.792ZM174.468 159.774H176.586V157.454C176.586 157.103 176.598 156.766 176.621 156.443H176.586C176.586 156.443 176.401 156.742 176.032 157.34L174.468 159.774Z" fill="white"/>
<rect x="268.563" y="158.143" width="1.06986" height="3.14192" fill="white"/>
<rect x="266.917" y="159.191" width="1.06986" height="2.09461" fill="white"/>
<rect x="270.209" y="156.049" width="1.06986" height="5.23653" fill="white"/>
<rect x="271.855" y="155.002" width="1.06986" height="6.28384" fill="white"/>
<rect x="273.501" y="153.954" width="1.06986" height="7.33115" fill="white"/>
<rect x="276.793" y="153.954" width="5.7608" height="2.74918" fill="#CCCBCB"/>
<rect x="276.793" y="161.285" width="6.41475" height="5.7608" transform="rotate(-90 276.793 161.285)" fill="#F9F9F9"/>
<path d="M443.184 322.57L409.646 322.495L379.481 237.416L411.927 237.489L443.184 322.57Z" fill="#CCC4D7"/>
<path d="M481.688 322.57L448.15 322.495L417.985 237.416L450.431 237.489L481.688 322.57Z" fill="#B08FE5"/>
<path d="M519.162 322.57L485.624 322.481L455.451 237.391L487.897 237.477L519.162 322.57Z" fill="#680DC2"/>
<path d="M536.114 273.764H577.614V285.764H554.114V296.164H573.914V306.964H554.114V318.564H577.514V330.764H536.114V273.764ZM611.747 330.764L610.147 324.464C607.08 329.464 602.813 331.964 597.347 331.964C592.88 331.964 589.213 330.731 586.347 328.264C583.547 325.731 582.147 322.197 582.147 317.664C582.147 314.864 582.947 312.431 584.547 310.364C586.213 308.231 588.48 306.731 591.347 305.864C595.08 304.797 600.847 304.197 608.647 304.064C608.647 299.664 608.447 297.331 608.047 297.064C607.713 296.797 606.647 296.664 604.847 296.664C603.713 296.664 602.147 296.731 600.147 296.864C596.947 296.997 592.613 297.364 587.147 297.964C586.613 294.364 586.213 290.497 585.947 286.364C589.48 285.631 593.18 285.031 597.047 284.564C600.913 284.031 604.38 283.764 607.447 283.764C612.78 283.764 616.78 284.664 619.447 286.464C622.113 288.197 623.847 290.497 624.647 293.364C625.447 296.231 625.813 299.864 625.747 304.264L625.647 318.964L625.947 330.764H611.747ZM603.147 320.764C604.88 320.764 606.713 320.431 608.647 319.764V312.364H607.847C602.913 312.364 600.18 312.631 599.647 313.164C599.313 313.497 599.047 313.997 598.847 314.664C598.713 315.331 598.647 315.964 598.647 316.564C598.647 318.164 599.013 319.264 599.747 319.864C600.48 320.464 601.613 320.764 603.147 320.764ZM670.668 315.164C670.668 321.097 668.768 325.364 664.968 327.964C661.235 330.564 655.901 331.864 648.968 331.864C644.101 331.864 638.501 331.164 632.168 329.764C632.301 328.431 632.601 326.531 633.068 324.064C633.601 321.531 634.035 319.597 634.368 318.264C636.768 318.664 639.435 318.997 642.368 319.264C645.301 319.464 647.801 319.564 649.868 319.564C651.668 319.564 652.768 319.464 653.168 319.264C653.235 319.197 653.301 319.031 653.368 318.764C653.501 318.431 653.568 318.097 653.568 317.764C653.568 316.431 652.735 315.531 651.068 315.064C650.535 314.931 648.501 314.364 644.968 313.364C641.435 312.364 638.535 310.564 636.268 307.964C634.068 305.297 632.968 301.997 632.968 298.064C632.968 295.997 633.435 293.697 634.368 291.164C635.301 288.631 636.301 287.031 637.368 286.364C638.168 285.831 640.101 285.297 643.168 284.764C646.235 284.164 649.068 283.864 651.668 283.864C657.201 283.864 662.768 284.264 668.368 285.064C668.368 286.264 668.201 288.297 667.868 291.164C667.535 293.964 667.235 295.731 666.968 296.464C661.301 295.731 656.735 295.364 653.268 295.364C651.468 295.364 650.301 295.464 649.768 295.664C649.635 295.731 649.501 295.931 649.368 296.264C649.235 296.531 649.168 296.897 649.168 297.364C649.168 298.297 649.468 298.964 650.068 299.364C650.668 299.831 652.235 300.397 654.768 301.064C657.768 301.931 660.335 302.831 662.468 303.764C664.668 304.697 666.568 306.097 668.168 307.964C669.835 309.831 670.668 312.231 670.668 315.164ZM723.939 284.764L711.939 323.264C709.606 330.664 707.506 336.031 705.639 339.364C703.772 342.764 701.906 345.131 700.039 346.464C698.972 347.197 697.272 347.764 694.939 348.164C692.672 348.564 690.206 348.764 687.539 348.764C683.539 348.764 680.339 348.397 677.939 347.664C677.872 346.064 677.939 344.097 678.139 341.764C678.339 339.497 678.606 337.564 678.939 335.964C681.739 336.097 684.472 336.164 687.139 336.164C689.139 336.164 690.639 336.131 691.639 336.064C692.639 334.131 693.572 332.097 694.439 329.964L687.539 329.564L672.139 284.764H690.239L698.239 316.964L698.339 318.864H698.639L705.839 284.764H723.939ZM780.841 300.664C785.374 301.197 788.607 302.731 790.541 305.264C792.474 307.731 793.441 310.731 793.441 314.264C793.441 316.464 793.107 318.564 792.441 320.564C791.774 322.497 790.974 324.164 790.041 325.564C789.107 326.897 788.307 327.764 787.641 328.164C784.974 329.897 776.841 330.764 763.241 330.764H743.841V273.764H767.341C772.674 273.764 776.974 274.064 780.241 274.664C783.574 275.197 786.274 276.464 788.341 278.464C790.407 280.397 791.441 283.364 791.441 287.364C791.441 290.831 790.574 293.631 788.841 295.764C787.174 297.897 784.507 299.364 780.841 300.164V300.664ZM772.841 285.864C772.174 285.197 771.374 284.797 770.441 284.664C769.574 284.464 768.174 284.364 766.241 284.364C764.307 284.364 762.841 284.397 761.841 284.464V296.664H762.841C763.174 296.664 764.574 296.664 767.041 296.664C769.507 296.664 771.141 296.497 771.941 296.164C772.541 295.897 773.074 295.197 773.541 294.064C774.074 292.931 774.341 291.697 774.341 290.364C774.341 288.364 773.841 286.864 772.841 285.864ZM774.541 319.264C775.007 318.864 775.374 318.131 775.641 317.064C775.974 315.931 776.141 314.797 776.141 313.664C776.141 312.264 775.941 310.964 775.541 309.764C775.207 308.497 774.741 307.597 774.141 307.064C773.541 306.464 772.674 306.064 771.541 305.864C770.474 305.664 768.641 305.564 766.041 305.564C764.374 305.564 762.974 305.597 761.841 305.664V320.164C764.974 320.231 767.774 320.197 770.241 320.064C772.707 319.864 774.141 319.597 774.541 319.264ZM827.469 330.764L825.869 324.464C822.803 329.464 818.536 331.964 813.069 331.964C808.603 331.964 804.936 330.731 802.069 328.264C799.269 325.731 797.869 322.197 797.869 317.664C797.869 314.864 798.669 312.431 800.269 310.364C801.936 308.231 804.203 306.731 807.069 305.864C810.803 304.797 816.569 304.197 824.369 304.064C824.369 299.664 824.169 297.331 823.769 297.064C823.436 296.797 822.369 296.664 820.569 296.664C819.436 296.664 817.869 296.731 815.869 296.864C812.669 296.997 808.336 297.364 802.869 297.964C802.336 294.364 801.936 290.497 801.669 286.364C805.203 285.631 808.903 285.031 812.769 284.564C816.636 284.031 820.103 283.764 823.169 283.764C828.503 283.764 832.503 284.664 835.169 286.464C837.836 288.197 839.569 290.497 840.369 293.364C841.169 296.231 841.536 299.864 841.469 304.264L841.369 318.964L841.669 330.764H827.469ZM818.869 320.764C820.603 320.764 822.436 320.431 824.369 319.764V312.364H823.569C818.636 312.364 815.903 312.631 815.369 313.164C815.036 313.497 814.769 313.997 814.569 314.664C814.436 315.331 814.369 315.964 814.369 316.564C814.369 318.164 814.736 319.264 815.469 319.864C816.203 320.464 817.336 320.764 818.869 320.764ZM893.691 287.664C894.291 288.397 894.724 290.231 894.991 293.164C895.324 296.097 895.491 300.564 895.491 306.564V330.764H878.391V306.764V302.664C878.391 300.531 878.224 299.197 877.891 298.664C877.357 297.997 876.124 297.664 874.191 297.664C873.257 297.664 872.557 297.697 872.091 297.764C870.224 297.831 868.291 298.264 866.291 299.064V330.764H849.191V284.764H863.091L864.991 292.464C869.791 286.664 875.524 283.764 882.191 283.764C884.591 283.764 886.824 284.097 888.891 284.764C891.024 285.431 892.624 286.397 893.691 287.664ZM952.29 330.764H933.69L924.19 312.064C923.256 310.131 922.023 308.897 920.49 308.364V330.764H903.39V270.764L920.49 270.064V304.164C922.09 303.497 923.456 302.131 924.59 300.064L933.09 284.764L951.79 284.664L942.09 300.264C940.556 302.731 938.89 304.697 937.09 306.164C938.623 307.831 940.356 310.364 942.29 313.764L952.29 330.764Z" fill="url(#paint2_linear_219_145)"/>
<defs>
<filter id="filter0_d_219_145" x="202.017" y="281.333" width="41.983" height="34.5754" filterUnits="userSpaceOnUse" color-interpolation-filters="sRGB">
<feFlood flood-opacity="0" result="BackgroundImageFix"/>
<feColorMatrix in="SourceAlpha" type="matrix" values="0 0 0 0 0 0 0 0 0 0 0 0 0 0 0 0 0 0 127 0" result="hardAlpha"/>
<feOffset dy="4"/>
<feGaussianBlur stdDeviation="2"/>
<feComposite in2="hardAlpha" operator="out"/>
<feColorMatrix type="matrix" values="0 0 0 0 0 0 0 0 0 0 0 0 0 0 0 0 0 0 0.25 0"/>
<feBlend mode="normal" in2="BackgroundImageFix" result="effect1_dropShadow_219_145"/>
<feBlend mode="normal" in="SourceGraphic" in2="effect1_dropShadow_219_145" result="shape"/>
</filter>
<linearGradient id="paint0_linear_219_145" x1="107.869" y1="51.428" x2="615.966" y2="519.816" gradientUnits="userSpaceOnUse">
<stop offset="0.0517784" stop-color="#8F00FF"/>
<stop offset="0.319837" stop-color="#BC01FE" stop-opacity="0.990423"/>
<stop offset="0.703911" stop-color="#AD1EDF" stop-opacity="0.62053"/>
<stop offset="0.918086" stop-color="#EAAFFF" stop-opacity="0.0260417"/>
<stop offset="1" stop-color="#FAECFF" stop-opacity="0"/>
</linearGradient>
<linearGradient id="paint1_linear_219_145" x1="291.195" y1="152.121" x2="127.631" y2="445.462" gradientUnits="userSpaceOnUse">
<stop stop-color="#DBB4FB"/>
<stop offset="0.687204" stop-color="#B43FCA" stop-opacity="0.01"/>
<stop offset="0.776437" stop-color="#D88FE6" stop-opacity="0"/>
<stop offset="0.789568" stop-color="#E79DF4" stop-opacity="0.01"/>
<stop offset="0.802083" stop-color="#AF2AD0" stop-opacity="0.0348387"/>
<stop offset="0.958333" stop-color="#8000FF" stop-opacity="0"/>
</linearGradient>
<linearGradient id="paint2_linear_219_145" x1="791.307" y1="232.764" x2="791.307" y2="455.448" gradientUnits="userSpaceOnUse">
<stop stop-color="#1A014F"/>
<stop offset="0.734375" stop-color="#1E025A" stop-opacity="0.78"/>
</linearGradient>
</defs>
</svg>
