<svg width="454" height="418" viewBox="0 0 454 418" fill="none" xmlns="http://www.w3.org/2000/svg">
<path d="M50.148 5.46262L223.506 5.44311L372.134 312.06L204.421 312.079L50.148 5.46262Z" fill="url(#paint0_linear_219_146)" fill-opacity="0.7"/>
<path d="M172.824 266.049C172.824 265.564 173.217 265.17 173.703 265.17V265.17C174.188 265.17 174.581 265.564 174.581 266.049V281.148C174.581 281.633 174.188 282.027 173.703 282.027V282.027C173.217 282.027 172.824 281.633 172.824 281.148V266.049Z" fill="#787474"/>
<rect x="172.824" y="246.629" width="1.75768" height="13.485" rx="0.878841" fill="#787474"/>
<rect x="172.824" y="291.017" width="1.75768" height="13.485" rx="0.878841" fill="#787474"/>
<rect x="177.667" y="222.72" width="110.421" height="191.656" rx="17.5" fill="#730DC2"/>
<rect x="177.667" y="222.72" width="110.421" height="191.656" rx="17.5" fill="url(#paint1_linear_219_146)"/>
<rect x="177.667" y="222.72" width="110.421" height="191.656" rx="17.5" stroke="#767676" stroke-width="5"/>
<rect x="177.496" y="222.597" width="107.249" height="191.903" rx="16.5" stroke="black" stroke-width="7"/>
<g filter="url(#filter0_d_219_146)">
<path d="M222.625 301.876H227.858L231.828 319.109H226.866L222.625 301.876Z" fill="#CCC4D7"/>
<path d="M228.67 301.876H233.904L237.874 319.109H232.911L228.67 301.876Z" fill="#B08FE5"/>
<path d="M234.806 301.876H240.04L244.01 319.109H239.047L234.806 301.876Z" fill="#680DC2"/>
</g>
<path d="M190.569 229.135V228.702H190.756C191.096 228.702 191.33 228.647 191.459 228.538C191.588 228.424 191.653 228.27 191.653 228.075V227.946H192.145V232.522H191.559V229.135H190.569ZM194.254 230.231C194.254 230.598 194.28 230.917 194.33 231.186C194.385 231.456 194.477 231.676 194.606 231.848C194.735 232.016 194.899 232.1 195.098 232.1C195.25 232.1 195.381 232.049 195.49 231.948C195.604 231.846 195.69 231.706 195.748 231.526C195.811 231.342 195.856 231.145 195.883 230.934C195.91 230.723 195.924 230.489 195.924 230.231C195.924 229.665 195.856 229.21 195.719 228.866C195.582 228.522 195.371 228.35 195.086 228.35C194.801 228.35 194.59 228.52 194.453 228.86C194.321 229.2 194.254 229.657 194.254 230.231ZM193.668 230.231C193.668 229.805 193.709 229.434 193.791 229.118C193.873 228.801 193.983 228.557 194.119 228.385C194.26 228.214 194.41 228.089 194.571 228.01C194.731 227.928 194.903 227.887 195.086 227.887C195.535 227.887 195.885 228.09 196.135 228.497C196.385 228.903 196.51 229.481 196.51 230.231C196.51 230.934 196.391 231.501 196.153 231.93C195.918 232.356 195.567 232.569 195.098 232.569C194.914 232.569 194.74 232.528 194.576 232.446C194.416 232.364 194.266 232.235 194.125 232.059C193.985 231.883 193.873 231.639 193.791 231.327C193.709 231.014 193.668 230.649 193.668 230.231ZM197.436 232.001V231.233H198.256V232.001H197.436ZM197.436 229.628V228.86H198.256V229.628H197.436ZM199.469 229.135V228.702H199.656C199.996 228.702 200.231 228.647 200.36 228.538C200.489 228.424 200.553 228.27 200.553 228.075V227.946H201.045V232.522H200.459V229.135H199.469ZM202.428 231.022L204.455 227.94H204.959V231.01H205.574V231.479H204.959V232.516H204.391V231.479H202.428V231.022ZM202.979 231.01H204.391V229.464C204.391 229.229 204.399 229.005 204.414 228.79H204.391C204.391 228.79 204.268 228.989 204.022 229.387L202.979 231.01Z" fill="white"/>
<rect x="259.937" y="230.536" width="0.761662" height="2.36344" fill="white"/>
<rect x="258.765" y="231.323" width="0.761662" height="1.57563" fill="white"/>
<rect x="261.109" y="228.96" width="0.761662" height="3.93907" fill="white"/>
<rect x="262.28" y="228.172" width="0.761662" height="4.72688" fill="white"/>
<rect x="263.452" y="227.384" width="0.761662" height="5.51469" fill="white"/>
<rect x="268.365" y="227.142" width="4.10126" height="2.06801" fill="#CCCBCB"/>
<path d="M268.236 232.909V228.084H272.337V232.909H268.236Z" fill="#F9F9F9"/>
<path d="M209 228C209 226.343 210.343 225 212 225L250.528 225C252.185 225 253.528 226.343 253.528 228L253.528 229.866C253.528 231.523 252.185 232.866 250.528 232.866L212 232.866C210.343 232.866 209 231.523 209 229.866L209 228Z" fill="black"/>
<path d="M50.9826 176.656L23.9785 176.092L1.89394 125.619L28.0189 126.165L50.9826 176.656Z" fill="#CCC4D7"/>
<path d="M82.9826 176.656L55.9785 176.092L33.8939 125.619L60.0189 126.165L82.9826 176.656Z" fill="#B08FE5"/>
<path d="M113.984 176.322L86.9795 175.756L64.8967 125.283L91.0217 125.83L113.984 176.322Z" fill="#680DC2"/>
<path d="M148.16 173H177.14V164H158.9V154.52H173.84V145.52H158.9V137.24H176.48V128.3H148.16V173ZM193.753 173.84C197.533 173.84 200.713 172.1 203.533 169.58H203.833L204.553 173H213.253V153.62C213.253 142.94 208.273 138.02 199.453 138.02C194.113 138.02 189.253 139.82 184.753 142.52L188.473 149.54C191.893 147.62 194.713 146.54 197.413 146.54C200.893 146.54 202.333 148.16 202.573 150.92C189.253 152.36 183.613 156.26 183.613 163.46C183.613 169.16 187.453 173.84 193.753 173.84ZM197.413 165.56C195.193 165.56 193.753 164.6 193.753 162.62C193.753 160.22 195.913 158.24 202.573 157.4V162.86C201.013 164.54 199.573 165.56 197.413 165.56ZM231.7 173.84C241 173.84 245.92 168.98 245.92 162.68C245.92 156.5 241.18 154.04 236.92 152.42C233.38 151.16 230.44 150.38 230.44 148.34C230.44 146.72 231.58 145.88 234.04 145.88C236.26 145.88 238.66 147.02 241.12 148.76L245.86 142.4C242.98 140.18 239.02 138.02 233.68 138.02C225.7 138.02 220.48 142.4 220.48 148.82C220.48 154.52 225.1 157.28 229.18 158.9C232.66 160.28 235.96 161.24 235.96 163.28C235.96 164.96 234.76 165.98 231.94 165.98C229.24 165.98 226.42 164.72 223.3 162.38L218.56 169.04C222.04 171.92 227.26 173.84 231.7 173.84ZM256.346 186.14C264.446 186.14 268.166 181.82 271.466 173.06L283.226 138.86H273.026L269.066 153.02C268.286 156.26 267.506 159.44 266.846 162.68H266.546C265.646 159.32 264.926 156.14 263.906 153.02L259.346 138.86H248.606L261.686 171.98L261.206 173.72C260.426 176.12 258.746 177.8 255.506 177.8C254.726 177.8 253.826 177.5 253.226 177.38L251.306 185.48C252.746 185.9 254.126 186.14 256.346 186.14Z" fill="white"/>
<path d="M302.848 173H319.708C329.428 173 337.168 168.92 337.168 159.8C337.168 153.86 333.748 150.5 329.248 149.3V149.06C332.848 147.68 335.068 143.36 335.068 139.4C335.068 130.82 327.688 128.3 318.448 128.3H302.848V173ZM313.588 146.06V136.52H318.028C322.528 136.52 324.628 137.84 324.628 141.02C324.628 144.08 322.588 146.06 318.028 146.06H313.588ZM313.588 164.78V153.92H318.928C324.148 153.92 326.728 155.42 326.728 159.08C326.728 162.92 324.088 164.78 318.928 164.78H313.588ZM352.366 173.84C356.146 173.84 359.326 172.1 362.146 169.58H362.446L363.166 173H371.866V153.62C371.866 142.94 366.886 138.02 358.066 138.02C352.726 138.02 347.866 139.82 343.366 142.52L347.086 149.54C350.506 147.62 353.326 146.54 356.026 146.54C359.506 146.54 360.946 148.16 361.186 150.92C347.866 152.36 342.226 156.26 342.226 163.46C342.226 169.16 346.066 173.84 352.366 173.84ZM356.026 165.56C353.806 165.56 352.366 164.6 352.366 162.62C352.366 160.22 354.526 158.24 361.186 157.4V162.86C359.626 164.54 358.186 165.56 356.026 165.56ZM380.113 173H390.793V150.2C392.833 148.22 394.273 147.14 396.673 147.14C399.373 147.14 400.633 148.46 400.633 153.2V173H411.313V151.88C411.313 143.36 408.133 138.02 400.693 138.02C396.073 138.02 392.593 140.36 389.773 143.12H389.593L388.813 138.86H380.113V173ZM419.605 173H430.105V164.54L434.065 160.04L441.445 173H453.025L440.305 153.08L452.185 138.86H440.485L430.405 151.7H430.105V125.06H419.605V173Z" fill="#290B68"/>
<defs>
<filter id="filter0_d_219_146" x="218.625" y="301.876" width="29.3851" height="25.2334" filterUnits="userSpaceOnUse" color-interpolation-filters="sRGB">
<feFlood flood-opacity="0" result="BackgroundImageFix"/>
<feColorMatrix in="SourceAlpha" type="matrix" values="0 0 0 0 0 0 0 0 0 0 0 0 0 0 0 0 0 0 127 0" result="hardAlpha"/>
<feOffset dy="4"/>
<feGaussianBlur stdDeviation="2"/>
<feComposite in2="hardAlpha" operator="out"/>
<feColorMatrix type="matrix" values="0 0 0 0 0 0 0 0 0 0 0 0 0 0 0 0 0 0 0.25 0"/>
<feBlend mode="normal" in2="BackgroundImageFix" result="effect1_dropShadow_219_146"/>
<feBlend mode="normal" in="SourceGraphic" in2="effect1_dropShadow_219_146" result="shape"/>
</filter>
<linearGradient id="paint0_linear_219_146" x1="219.345" y1="24.3152" x2="488.047" y2="384.701" gradientUnits="userSpaceOnUse">
<stop offset="0.0517784" stop-color="#8F00FF"/>
<stop offset="0.319837" stop-color="#BC01FE" stop-opacity="0.990423"/>
<stop offset="0.703911" stop-color="#AD1EDF" stop-opacity="0.62053"/>
<stop offset="0.918086" stop-color="#EAAFFF" stop-opacity="0.0260417"/>
<stop offset="1" stop-color="#FAECFF" stop-opacity="0"/>
</linearGradient>
<linearGradient id="paint1_linear_219_146" x1="283.265" y1="223.03" x2="191.258" y2="414.623" gradientUnits="userSpaceOnUse">
<stop stop-color="#DBB4FB"/>
<stop offset="0.687204" stop-color="#B43FCA" stop-opacity="0.01"/>
<stop offset="0.776437" stop-color="#D88FE6" stop-opacity="0"/>
<stop offset="0.789568" stop-color="#E79DF4" stop-opacity="0.01"/>
<stop offset="0.802083" stop-color="#AF2AD0" stop-opacity="0.0348387"/>
<stop offset="0.958333" stop-color="#8000FF" stop-opacity="0"/>
</linearGradient>
</defs>
</svg>
